<?xml version="1.0" encoding="UTF-8"?>
<svg width="193px" height="64px" viewBox="0 0 193 64" version="1.1" xmlns="http://www.w3.org/2000/svg" xmlns:xlink="http://www.w3.org/1999/xlink">
    <title>wordmark_inverse</title>
    <g id="wordmark_inverse" stroke="none" stroke-width="1" fill="none" fill-rule="evenodd">
        <path d="M77.2820901,27.8931794 C75.6808413,27.2429017 74.3120143,26.1081648 73.3587515,24.6407909 C72.4545671,23.2171355 72.0016529,21.4959749 72.0000044,19.4773089 C71.9983649,17.458643 72.4512791,15.7408439 73.3587515,14.3239119 C74.3147268,12.8655196 75.6835698,11.7404455 77.2820901,11.0992569 C78.9967526,10.366419 81.068157,10 83.4963033,10 C85.9244496,10 87.991744,10.366419 89.6981867,11.0992569 C91.3045683,11.7445953 92.6807462,12.8746119 93.6437189,14.3390393 C94.5479033,15.7559713 95.0000044,17.4653662 95.0000044,19.467224 C95.0000044,21.4690817 94.5479033,23.1902424 93.6437189,24.6307059 C92.6844932,26.1015703 91.3075203,27.2366392 89.6981867,27.8830945 C87.9769483,28.6276982 85.9096538,29 83.4963033,29 C81.0829528,29 79.0115484,28.6310598 77.2820901,27.8931794 Z M88.6254951,19.4773089 C88.6254951,18.1763535 88.2375178,17.1460103 87.4615631,16.3862792 C86.6856085,15.6265481 85.3605672,15.247523 83.4864395,15.2491983 C81.6123117,15.2491983 80.2872705,15.6282289 79.5113158,16.3862792 C78.7353611,17.1443294 78.3482058,18.1746727 78.3498445,19.4773089 C78.3498445,22.3347045 80.0620463,23.7634023 83.4864395,23.7634023 C86.9108326,23.7634023 88.631249,22.3347045 88.6476887,19.4773089 L88.6254951,19.4773089 Z" id="Shape" fill="#0D0D0D" fill-rule="nonzero"></path>
        <path d="M120,18.9791472 C120,21.9811893 119.112206,24.2359911 117.336617,25.7435525 C115.561028,27.251114 112.782575,28.0032596 109.00126,28 C105.201466,28 102.417974,27.2494789 100.650785,25.7484578 C98.8835949,24.2474368 98,21.9909999 98,18.9791472 L98,10 L104.251518,10 L104.251518,18.7363349 C104.251518,19.9528487 104.605124,20.9502592 105.312335,21.7285665 C106.019547,22.5068737 107.249189,22.8960273 109.00126,22.8960273 C110.749971,22.8960273 111.978773,22.5027859 112.687665,21.7163032 C113.411738,20.8869455 113.791023,19.8240136 113.751002,18.7363349 L113.751002,10 L120,10 L120,18.9791472 Z" id="Path" fill="#0D0D0D" fill-rule="nonzero"></path>
        <polygon id="Path" fill="#0D0D0D" fill-rule="nonzero" points="144 10 144 15.2519961 136.906704 15.2519961 136.906704 28 131.086263 28 131.086263 15.2419106 124 15.2419106 124 10"></polygon>
        <polygon id="Path" fill="#0D0D0D" fill-rule="nonzero" points="167 10 167 14.7527665 155.080915 14.7527665 155.080915 16.6286595 166.514508 16.6286595 166.514508 21.381426 155.080915 21.381426 155.080915 23.257319 167 23.257319 167 28 149 28 149 10"></polygon>
        <path d="M192.173029,21.918476 C192.722777,22.5101555 192.998434,23.3405239 193,24.4095812 L193,28 L187.171267,28 L187.171267,25.4584676 C187.171267,24.659196 187.049101,24.1171032 186.80007,23.8321894 C186.55104,23.5472755 186.052978,23.4086006 185.308234,23.4086006 L178.821684,23.4086006 L178.821684,28 L173,28 L173,10 L186.052978,10 C188.353773,10 190.086808,10.4958678 191.252085,11.4876033 C192.417362,12.4793388 193,13.9266004 193,15.8293879 C193,17.1783163 192.734524,18.2725872 192.20592,19.1071579 C191.637629,19.9745357 190.818365,20.6162454 189.875367,20.9326236 C190.855828,20.998179 191.621716,21.3267965 192.173029,21.918476 Z M178.821684,15.0023813 L178.821684,18.403698 L184.648068,18.403698 C185.077131,18.4136963 185.506219,18.3850201 185.930812,18.3179717 C186.214613,18.2673929 186.471252,18.1068002 186.652062,17.866648 C186.866069,17.5247686 186.964717,17.1146322 186.931634,16.7043003 C186.96469,16.2931788 186.866068,15.8822561 186.652062,15.5394313 C186.469733,15.301643 186.213682,15.1423137 185.930812,15.0906289 C185.50631,15.0224874 185.077202,14.9929665 184.648068,15.0023813 L178.821684,15.0023813 Z" id="Shape" fill="#0D0D0D" fill-rule="nonzero"></path>
        <path d="M77.2815238,52.8862069 C75.6811029,52.236387 74.3126108,51.103287 73.3586059,49.6380637 C72.4545183,48.2118037 72.0016527,46.4907162 72.0000044,44.4748011 C71.9983651,42.4588859 72.4512308,40.7419982 73.3586059,39.3241379 C74.315457,37.8658422 75.6848773,36.7405978 77.2839895,36.0986737 C78.9984682,35.3662246 81.0696506,35 83.4975365,35 C85.9254225,35 87.9924953,35.3704244 89.6987551,36.1112732 C91.30449,36.7571052 92.6802986,37.8863403 93.6438643,39.3493369 C94.5479518,40.7655172 95.0000044,42.4740053 95.0000044,44.4748011 C95.0000044,46.4755968 94.5479518,48.1966844 93.6438643,49.6380637 C92.6837766,51.1066613 91.307179,52.2400612 89.6987551,52.8862069 C87.9777012,53.6287356 85.9106283,54 83.4975365,54 C81.0844447,54 79.0124405,53.6287356 77.2815238,52.8862069 Z M88.6237128,44.4748011 C88.6237128,43.1745358 88.2357771,42.1455791 87.4599056,41.387931 C86.6840341,40.6302829 85.3624225,40.2514589 83.4950708,40.2514589 C81.621144,40.2514589 80.2962448,40.6311229 79.5203733,41.3904509 C78.7445018,42.149779 78.357388,43.1787356 78.3590266,44.477321 C78.3590266,47.3332007 80.0710448,48.7611406 83.4950708,48.7611406 C86.9190969,48.7611406 88.6360413,47.3323607 88.6459041,44.4748011 L88.6237128,44.4748011 Z" id="Shape" fill="#0D0D0D" fill-rule="nonzero"></path>
        <path d="M118.17302,47.912654 C118.722768,48.5055991 118.998424,49.3345465 119,50.3994961 L119,54 L113.171261,54 L113.171261,51.450168 C113.171261,50.6489362 113.047529,50.1072228 112.800064,49.825028 C112.552599,49.5428331 112.055321,49.4008959 111.308229,49.3992161 L104.82873,49.3992161 L104.82873,54 L99,54 L99,36 L112.052972,36 C114.352199,36 116.085234,36.4963606 117.252076,37.4890817 C118.418919,38.4818029 119.001557,39.9272116 119,41.825308 C119,43.1690929 118.735298,44.2609183 118.205911,45.1007839 C117.636482,45.9663549 116.817638,46.6072874 115.875359,46.924972 C116.85582,46.9904815 117.621707,47.3197088 118.17302,47.912654 Z M104.82873,41.0039194 L104.82873,44.4028555 L110.65511,44.4028555 C111.084244,44.4122638 111.513352,44.3827635 111.937854,44.3146697 C112.220724,44.2630211 112.476775,44.1038033 112.659103,43.8661814 C113.032037,43.1425749 113.032037,42.2642 112.659103,41.5405935 C112.477018,41.302208 112.220986,41.1421072 111.937854,41.0895857 C111.513261,41.0225842 111.084173,40.9939281 110.65511,41.0039194 L104.82873,41.0039194 Z" id="Shape" fill="#0D0D0D" fill-rule="nonzero"></path>
        <path d="M144,49.0237859 C144,50.5724969 143.524545,51.7894612 142.573636,52.6746789 C141.622727,53.5598965 140.144855,54.0016655 138.140021,54 L124,54 L124,36 L137.20813,36 C139.314394,36 140.820001,36.3838183 141.724949,37.1514549 C142.629898,37.9190914 143.07841,39.0016774 143.070486,40.3992126 C143.099675,41.3350896 142.824371,42.2531473 142.290741,42.9994346 C141.733134,43.7290515 140.991008,44.2752709 140.151195,44.5741813 C142.717065,45.2746287 144,46.7578302 144,49.0237859 Z M129.898015,40.4999964 L129.898015,43.1002183 L135.320575,43.1002183 C135.667885,43.1079854 136.015236,43.0869245 136.359444,43.0372285 C136.584262,43.0026588 136.789564,42.8826691 136.937121,42.6996028 C137.235035,42.1415032 137.235035,41.4587116 136.937121,40.900612 C136.789564,40.7175457 136.584262,40.597556 136.359444,40.5629863 C136.01512,40.514566 135.667862,40.4935106 135.320575,40.4999964 L129.898015,40.4999964 Z M136.264353,49.4999893 C136.556347,49.5059006 136.848272,49.4848242 137.136812,49.4369995 C137.345471,49.3931079 137.531142,49.2682068 137.657435,49.0867758 C137.935951,48.5359244 137.935951,47.8739107 137.657435,47.3230594 C137.531142,47.1416283 137.345471,47.0167273 137.136812,46.9728357 C136.848408,46.9237314 136.556375,46.9026472 136.264353,46.9098458 L129.898015,46.9098458 L129.898015,49.5100677 L136.264353,49.4999893 Z" id="Shape" fill="#0D0D0D" fill-rule="nonzero"></path>
        <polygon id="Path" fill="#0D0D0D" fill-rule="nonzero" points="148 36 154 36 154 54 148 54"></polygon>
        <polygon id="Path" fill="#0D0D0D" fill-rule="nonzero" points="180 36 180 41.2544081 172.906704 41.2544081 172.906704 54 167.093296 54 167.093296 41.2544081 160 41.2544081 160 36"></polygon>
        <path d="M56.8604174,11.865467 C56.492665,12.421393 56.0639449,12.9344688 55.5822401,13.3951408 C64.7677359,25.0750759 64.0190152,41.7209783 53.8220377,52.5287685 C43.6250603,63.3365586 27.0536605,65.0482754 14.8635616,56.5529232 C2.67346278,48.057571 -1.46068299,31.9160367 5.14440568,18.6050379 C11.7494943,5.2940391 27.1027423,-1.17388159 41.2390718,3.39930169 C41.5065167,2.78878586 41.8419299,2.21037598 42.2389561,1.67503176 C38.9407083,0.561347659 35.4823495,-0.00447773052 32.0012242,0 C14.357945,0 0,14.3459525 0,31.9926236 C0.0203572771,49.6613687 14.3358752,63.9796388 32.0012242,64 C49.6445033,64 64,49.641758 64,31.9926236 C64.0069694,24.6616824 61.4852691,17.5527572 56.8604174,11.865467 Z" id="Path" fill="#0D0D0D" fill-rule="nonzero"></path>
        <circle id="Oval" fill="#79B19B" fill-rule="nonzero" cx="49" cy="7" r="6"></circle>
    </g>
</svg>